<mxfile host="65bd71144e">
    <diagram id="mChJH1xOSCDA1pjo_G7x" name="Page-1">
        <mxGraphModel dx="1216" dy="784" grid="1" gridSize="10" guides="1" tooltips="1" connect="1" arrows="1" fold="1" page="1" pageScale="1" pageWidth="850" pageHeight="1100" math="0" shadow="0">
            <root>
                <mxCell id="0"/>
                <mxCell id="1" parent="0"/>
                <mxCell id="30" style="html=1;exitX=1;exitY=0.25;exitDx=0;exitDy=0;edgeStyle=elbowEdgeStyle;endArrow=diamond;endFill=1;entryX=0;entryY=0;entryDx=0;entryDy=0;" edge="1" parent="1" source="2" target="3">
                    <mxGeometry relative="1" as="geometry">
                        <mxPoint x="520" y="130" as="targetPoint"/>
                    </mxGeometry>
                </mxCell>
                <mxCell id="34" style="edgeStyle=elbowEdgeStyle;html=1;exitX=0.5;exitY=1;exitDx=0;exitDy=0;entryX=0.5;entryY=0;entryDx=0;entryDy=0;endArrow=diamond;endFill=1;" edge="1" parent="1" source="2" target="6">
                    <mxGeometry relative="1" as="geometry"/>
                </mxCell>
                <mxCell id="35" style="edgeStyle=elbowEdgeStyle;html=1;exitX=1;exitY=0;exitDx=0;exitDy=0;entryX=-0.033;entryY=0.7;entryDx=0;entryDy=0;endArrow=diamond;endFill=1;entryPerimeter=0;" edge="1" parent="1" source="2" target="26">
                    <mxGeometry relative="1" as="geometry"/>
                </mxCell>
                <mxCell id="37" style="edgeStyle=elbowEdgeStyle;html=1;exitX=1;exitY=0.5;exitDx=0;exitDy=0;entryX=0;entryY=0;entryDx=0;entryDy=0;endArrow=diamond;endFill=1;" edge="1" parent="1" source="2" target="4">
                    <mxGeometry relative="1" as="geometry">
                        <Array as="points">
                            <mxPoint x="570" y="290"/>
                        </Array>
                    </mxGeometry>
                </mxCell>
                <mxCell id="2" value="Usuarios" style="swimlane;whiteSpace=wrap;html=1;startSize=23;fillColor=#60a917;fontColor=#ffffff;strokeColor=#2D7600;" parent="1" vertex="1">
                    <mxGeometry x="30" y="40" width="200" height="200" as="geometry"/>
                </mxCell>
                <mxCell id="7" value="ID: INTEGER (PK)" style="text;html=1;align=center;verticalAlign=middle;resizable=0;points=[];autosize=1;strokeColor=none;fillColor=none;" parent="2" vertex="1">
                    <mxGeometry x="-10" y="30" width="120" height="30" as="geometry"/>
                </mxCell>
                <mxCell id="8" value="Login: VARCHAR" style="text;html=1;align=center;verticalAlign=middle;resizable=0;points=[];autosize=1;strokeColor=none;fillColor=none;" parent="2" vertex="1">
                    <mxGeometry x="-10" y="60" width="120" height="30" as="geometry"/>
                </mxCell>
                <mxCell id="9" value="password: VARCHAR" style="text;html=1;align=center;verticalAlign=middle;resizable=0;points=[];autosize=1;strokeColor=none;fillColor=none;" parent="2" vertex="1">
                    <mxGeometry x="-10" y="90" width="140" height="30" as="geometry"/>
                </mxCell>
                <mxCell id="10" value="nickname:VARCHAR" style="text;html=1;align=center;verticalAlign=middle;resizable=0;points=[];autosize=1;strokeColor=none;fillColor=none;" parent="2" vertex="1">
                    <mxGeometry x="-10" y="120" width="140" height="30" as="geometry"/>
                </mxCell>
                <mxCell id="11" value="email: VARCHAR NN UNIQUE" style="text;html=1;align=center;verticalAlign=middle;resizable=0;points=[];autosize=1;strokeColor=none;fillColor=none;" parent="2" vertex="1">
                    <mxGeometry x="-10" y="150" width="190" height="30" as="geometry"/>
                </mxCell>
                <mxCell id="3" value="Asistencia" style="swimlane;whiteSpace=wrap;html=1;startSize=20;fillColor=#60a917;fontColor=#ffffff;strokeColor=#2D7600;" parent="1" vertex="1">
                    <mxGeometry x="330" y="250" width="215" height="230" as="geometry"/>
                </mxCell>
                <mxCell id="12" value="id: INTEGER PK" style="text;html=1;align=center;verticalAlign=middle;resizable=0;points=[];autosize=1;strokeColor=none;fillColor=none;" parent="3" vertex="1">
                    <mxGeometry y="25" width="110" height="30" as="geometry"/>
                </mxCell>
                <mxCell id="13" value="fecha de la asistencia: DATETIME" style="text;html=1;align=center;verticalAlign=middle;resizable=0;points=[];autosize=1;strokeColor=none;fillColor=none;" parent="3" vertex="1">
                    <mxGeometry x="-10" y="55" width="210" height="30" as="geometry"/>
                </mxCell>
                <mxCell id="14" value="ckeck_list: CHAR, CKECK&amp;nbsp;" style="text;html=1;align=center;verticalAlign=middle;resizable=0;points=[];autosize=1;strokeColor=none;fillColor=none;" parent="3" vertex="1">
                    <mxGeometry x="-5" y="85" width="170" height="30" as="geometry"/>
                </mxCell>
                <mxCell id="15" value="contenido: TEXT" style="text;html=1;align=center;verticalAlign=middle;resizable=0;points=[];autosize=1;strokeColor=none;fillColor=none;" parent="3" vertex="1">
                    <mxGeometry x="-5" y="115" width="110" height="30" as="geometry"/>
                </mxCell>
                <mxCell id="16" value="" style="edgeStyle=none;html=1;" parent="3" source="15" target="14" edge="1">
                    <mxGeometry relative="1" as="geometry"/>
                </mxCell>
                <mxCell id="31" value="ID: Usuarios (FK)" style="text;html=1;align=center;verticalAlign=middle;resizable=0;points=[];autosize=1;strokeColor=none;fillColor=none;" vertex="1" parent="3">
                    <mxGeometry x="-5" y="145" width="120" height="30" as="geometry"/>
                </mxCell>
                <mxCell id="4" value="Excusas y opiniones" style="swimlane;whiteSpace=wrap;html=1;fillColor=#60a917;fontColor=#ffffff;strokeColor=#2D7600;" parent="1" vertex="1">
                    <mxGeometry x="600" y="430" width="200" height="250" as="geometry"/>
                </mxCell>
                <mxCell id="18" value="opiniones: TEXT" style="text;html=1;align=center;verticalAlign=middle;resizable=0;points=[];autosize=1;strokeColor=none;fillColor=none;" parent="4" vertex="1">
                    <mxGeometry x="-5" y="80" width="110" height="30" as="geometry"/>
                </mxCell>
                <mxCell id="17" value="excusas: TEXT" style="text;html=1;align=center;verticalAlign=middle;resizable=0;points=[];autosize=1;strokeColor=none;fillColor=none;" parent="4" vertex="1">
                    <mxGeometry x="-5" y="50" width="100" height="30" as="geometry"/>
                </mxCell>
                <mxCell id="22" value="Id: INTEGER PK" style="text;html=1;align=center;verticalAlign=middle;resizable=0;points=[];autosize=1;strokeColor=none;fillColor=none;" parent="4" vertex="1">
                    <mxGeometry x="-5" y="20" width="110" height="30" as="geometry"/>
                </mxCell>
                <mxCell id="38" value="Curso: Entero" style="text;html=1;align=center;verticalAlign=middle;resizable=0;points=[];autosize=1;strokeColor=none;fillColor=none;" vertex="1" parent="4">
                    <mxGeometry x="-5" y="110" width="100" height="30" as="geometry"/>
                </mxCell>
                <mxCell id="39" value="ID usuarios: INTEGER FK" style="text;html=1;align=center;verticalAlign=middle;resizable=0;points=[];autosize=1;strokeColor=none;fillColor=none;" vertex="1" parent="4">
                    <mxGeometry y="140" width="160" height="30" as="geometry"/>
                </mxCell>
                <mxCell id="32" style="edgeStyle=elbowEdgeStyle;html=1;exitX=1;exitY=0;exitDx=0;exitDy=0;entryX=0.062;entryY=0.033;entryDx=0;entryDy=0;entryPerimeter=0;endArrow=diamond;endFill=1;" edge="1" parent="1" source="6" target="13">
                    <mxGeometry relative="1" as="geometry">
                        <Array as="points">
                            <mxPoint x="270" y="380"/>
                        </Array>
                    </mxGeometry>
                </mxCell>
                <mxCell id="6" value="Guia de ayuda" style="swimlane;whiteSpace=wrap;html=1;fillColor=#60a917;fontColor=#ffffff;strokeColor=#2D7600;" parent="1" vertex="1">
                    <mxGeometry x="50" y="420" width="200" height="250" as="geometry"/>
                </mxCell>
                <mxCell id="21" value="&amp;nbsp;Contenido: TEXT" style="text;html=1;align=center;verticalAlign=middle;resizable=0;points=[];autosize=1;strokeColor=none;fillColor=none;" parent="6" vertex="1">
                    <mxGeometry x="-15" y="50" width="120" height="30" as="geometry"/>
                </mxCell>
                <mxCell id="23" value="Id: INTEGER PK" style="text;html=1;align=center;verticalAlign=middle;resizable=0;points=[];autosize=1;strokeColor=none;fillColor=none;" parent="6" vertex="1">
                    <mxGeometry x="-5" y="20" width="110" height="30" as="geometry"/>
                </mxCell>
                <mxCell id="24" value="ID Asistencia: INTEGER FK" style="text;html=1;align=center;verticalAlign=middle;resizable=0;points=[];autosize=1;strokeColor=none;fillColor=none;" parent="6" vertex="1">
                    <mxGeometry x="-5" y="80" width="170" height="30" as="geometry"/>
                </mxCell>
                <mxCell id="25" value="MenÃº" style="swimlane;whiteSpace=wrap;html=1;fillColor=#60a917;fontColor=#ffffff;strokeColor=#2D7600;" parent="1" vertex="1">
                    <mxGeometry x="590" y="45" width="200" height="245" as="geometry"/>
                </mxCell>
                <mxCell id="26" value="ID: INTEGER (PK)" style="text;html=1;align=center;verticalAlign=middle;resizable=0;points=[];autosize=1;strokeColor=none;fillColor=none;" vertex="1" parent="25">
                    <mxGeometry x="5" y="35" width="120" height="30" as="geometry"/>
                </mxCell>
                <mxCell id="33" value="Text" style="text;html=1;align=center;verticalAlign=middle;resizable=0;points=[];autosize=1;strokeColor=none;fillColor=none;" vertex="1" parent="1">
                    <mxGeometry x="65" y="565" width="50" height="30" as="geometry"/>
                </mxCell>
            </root>
        </mxGraphModel>
    </diagram>
</mxfile>